<?xml version="1.0" encoding="UTF-8"?>
<svg version="1.1" xmlns="http://www.w3.org/2000/svg" width="600" height="600">
<path d="M0 0 C198 0 396 0 600 0 C600 198 600 396 600 600 C402 600 204 600 0 600 C0 402 0 204 0 0 Z " fill="#FEFEFE" transform="translate(0,0)"/>
<path d="M0 0 C1.14505077 0.89256308 2.28952103 1.78587111 3.43359375 2.6796875 C4.98421944 3.88561672 6.53501255 5.09133067 8.0859375 6.296875 C10.51958694 8.18898786 12.95193187 10.08262072 15.37939453 11.98266602 C16.12044434 12.56201904 16.86149414 13.14137207 17.625 13.73828125 C18.28701416 14.25704834 18.94902832 14.77581543 19.63110352 15.31030273 C22.82885306 17.94921521 22.82885306 17.94921521 26.7578125 18.57421875 C30.20642102 17.42132627 32.41253443 15.6478572 35.24609375 13.3671875 C36.40430911 12.4523157 37.56319312 11.53828992 38.72265625 10.625 C39.32883789 10.14321289 39.93501953 9.66142578 40.55957031 9.16503906 C62.64287604 -8.33819596 83.98573146 -23.54147177 113.43359375 -21.3203125 C140.58293252 -17.84027818 164.03925464 1.7952266 184.04125977 19.04931641 C214.19916821 45.09193585 214.19916821 45.09193585 252.35058594 51.96533203 C258.47530498 51.1254444 263.95437198 48.41017649 269.43359375 45.6796875 C270.46097656 45.17308594 271.48835937 44.66648437 272.546875 44.14453125 C281.14312087 39.51052851 288.21968913 33.17860453 295.43359375 26.6796875 C297.11271118 31.71703978 294.85277211 36.44025822 293.43359375 41.4296875 C293.11253662 42.56188721 292.79147949 43.69408691 292.46069336 44.8605957 C289.88590382 53.66015118 286.79614884 61.61557051 282.43359375 69.6796875 C281.81742188 70.84242188 281.20125 72.00515625 280.56640625 73.203125 C262.33516212 106.80526574 233.29793192 132.30316037 196.52734375 143.6171875 C174.20987314 149.63087718 150.19443683 151.19572779 127.43359375 146.6796875 C126.78874023 146.55609863 126.14388672 146.43250977 125.47949219 146.30517578 C89.22615263 139.1941427 55.81699272 120.22276278 34.68603516 89.56884766 C27.43359375 78.6293951 27.43359375 78.6293951 27.43359375 74.6796875 C26.77359375 74.6796875 26.11359375 74.6796875 25.43359375 74.6796875 C25.12421875 75.8553125 25.12421875 75.8553125 24.80859375 77.0546875 C21.40307861 86.03286378 15.56769702 93.39836644 9.43359375 100.6796875 C8.840625 101.41960937 8.24765625 102.15953125 7.63671875 102.921875 C-7.06590775 120.57759315 -28.51534939 131.58021881 -49.56640625 139.6796875 C-50.25138184 139.94652344 -50.93635742 140.21335937 -51.64208984 140.48828125 C-85.71046424 153.41347841 -126.75846922 152.54353567 -159.9921875 137.83203125 C-196.30753664 120.99664694 -222.58951965 90.21847072 -236.76953125 52.96484375 C-238.18378951 48.90925022 -239.40233589 44.81307104 -240.56640625 40.6796875 C-240.85902344 39.7 -241.15164062 38.7203125 -241.453125 37.7109375 C-241.73800781 36.73125 -242.02289063 35.7515625 -242.31640625 34.7421875 C-242.71085937 33.39833984 -242.71085937 33.39833984 -243.11328125 32.02734375 C-243.56640625 29.6796875 -243.56640625 29.6796875 -242.56640625 26.6796875 C-241.93476563 27.29714844 -241.303125 27.91460937 -240.65234375 28.55078125 C-226.78833705 41.67564062 -210.93786015 52.12603538 -191.27734375 51.8828125 C-168.93964867 50.66011761 -150.30159472 35.20251128 -134.19482422 21.09472656 C-130.07449629 17.51430367 -125.82827794 14.08918485 -121.56640625 10.6796875 C-120.58542969 9.89078125 -119.60445313 9.101875 -118.59375 8.2890625 C-79.80732465 -22.4916888 -42.03431864 -32.26538668 0 0 Z " fill="#FD6250" transform="translate(273.56640625,362.3203125)"/>
<path d="M0 0 C4.48734028 2.72514442 7.79338998 6.09584146 9.25 11.25 C9.311875 11.95125 9.37375 12.6525 9.4375 13.375 C10.0975 13.375 10.7575 13.375 11.4375 13.375 C11.64375 12.818125 11.85 12.26125 12.0625 11.6875 C14.26266669 7.98721966 17.5741872 5.3066564 21.4375 3.375 C30.24194031 2.47084031 35.88126925 4.07173271 42.9375 9.1875 C45.06000414 12.28281854 45.02818753 14.7837289 44.4375 18.375 C42.97945852 22.61172334 41.14848095 26.66541498 39.3125 30.75 C35.66353118 39.09275282 32.169771 47.39868436 29.27685547 56.03466797 C28.24753754 59.10642477 27.15187214 62.10499145 25.8515625 65.0703125 C22.5126559 72.87339256 21.97771232 80.9732768 21.4375 89.375 C25.29887461 88.25949178 27.73271127 87.35026761 30.4375 84.375 C31.0975 84.375 31.7575 84.375 32.4375 84.375 C32.71078125 83.79363281 32.9840625 83.21226562 33.265625 82.61328125 C34.41571439 80.41661052 35.72252402 78.55912049 37.1875 76.5625 C42.55011952 68.57063498 45.5205299 59.3272852 48.43359375 50.21972656 C51.21447575 41.54321762 54.44776625 33.10481538 57.9375 24.6875 C58.61365356 23.02110474 58.61365356 23.02110474 59.3034668 21.32104492 C62.44803381 13.86454502 65.63130756 6.70411148 73.4375 3.375 C81.91558342 2.24283358 87.88812924 4.02493612 94.66015625 9.01171875 C95.24667969 9.46160156 95.83320313 9.91148437 96.4375 10.375 C97.08976563 9.83230469 97.74203125 9.28960937 98.4140625 8.73046875 C108.47975814 0.49085064 116.32172333 -2.80337056 129.4375 -1.625 C136.00168517 0.11583965 140.81258868 4.7586817 144.4375 10.375 C147.36693394 16.25155058 147.9522865 21.68569749 147.875 28.1875 C147.86670166 29.10112305 147.85840332 30.01474609 147.84985352 30.95605469 C147.26034257 55.26656303 137.10598842 78.53563645 123.4375 98.375 C131.45358469 92.99750335 131.45358469 92.99750335 138.4375 86.375 C139.0975 85.67375 139.7575 84.9725 140.4375 84.25 C145.23648925 77.35145295 147.92936865 69.35426512 150.4453125 61.39453125 C151.43810046 58.37317261 152.52948526 55.40735921 153.65673828 52.43432617 C154.40340484 50.46492892 155.13735402 48.49131295 155.8671875 46.515625 C159.84240762 35.79247213 163.98544666 25.19188948 168.9375 14.875 C169.4840625 13.7303125 170.030625 12.585625 170.59375 11.40625 C173.15325528 7.1982498 175.76832129 4.9313929 180.4375 3.375 C189.58234075 2.38417356 195.30590632 4.89278371 202.4375 10.375 C203.2109375 9.76011719 203.984375 9.14523438 204.78125 8.51171875 C215.26566932 0.37591317 222.73680427 -3.30039936 236.4375 -1.625 C243.84895243 0.92235918 248.08717352 5.41659827 251.5078125 12.34375 C253.88148257 17.7839807 254.08679583 22.74973731 254 28.625 C253.99121826 29.66624023 253.98243652 30.70748047 253.97338867 31.78027344 C253.35725386 55.74955345 243.64385217 79.2414447 229.4375 98.375 C246.95792981 88.48496299 253.99045309 75.18272802 259.4375 56.375 C262.56486089 45.80255396 266.43346039 35.72746939 271 25.6875 C271.45898682 24.67196045 271.91797363 23.6564209 272.39086914 22.61010742 C279.39110833 7.54009581 279.39110833 7.54009581 286.35546875 4.03515625 C292.20033636 2.18190555 298.31220775 2.51980578 303.875 5.0625 C307.19350732 7.00454227 309.50153528 8.98706174 311.4375 12.375 C311.7698777 16.67816361 311.2059526 19.6291528 309.42578125 23.53515625 C308.78721191 24.96287354 308.78721191 24.96287354 308.13574219 26.41943359 C307.67844727 27.41539551 307.22115234 28.41135742 306.75 29.4375 C305.82236537 31.51349575 304.89656729 33.59031316 303.97265625 35.66796875 C303.52937988 36.65974121 303.08610352 37.65151367 302.62939453 38.67333984 C300.35334366 43.83245064 298.37753605 49.08100332 296.4375 54.375 C295.91920187 55.68408264 295.39958466 56.99264352 294.87890625 58.30078125 C290.8843305 68.60955639 289.18459924 78.36172665 288.4375 89.375 C299.34704513 85.12726901 305.55342195 76.24025474 312.37109375 67.09765625 C314.4375 64.375 314.4375 64.375 316.4375 62.375 C320.49011287 62.03009678 321.98504176 62.07336118 325.4375 64.375 C326.29547484 69.80658878 324.99864757 72.81272486 321.98388672 77.12060547 C321.4942041 77.78205566 321.00452148 78.44350586 320.5 79.125 C319.75000732 80.17324951 319.75000732 80.17324951 318.98486328 81.24267578 C314.71089131 87.15556991 310.20478437 92.8518219 305.4375 98.375 C304.73238281 99.21417969 304.02726562 100.05335938 303.30078125 100.91796875 C294.96762138 110.56767811 284.15631796 122.17900356 270.9140625 123.80859375 C265.73640342 123.98769516 261.62536146 123.86652888 256.8125 121.875 C252.16716154 116.98517004 250.20674508 112.66851148 250.1875 105.875 C250.2507943 104.37402089 250.32697397 102.87324178 250.4375 101.375 C246.61107332 103.49174667 242.96004299 105.68334076 239.375 108.1875 C233.37200567 112.20981092 227.01374121 115.41612812 220.4375 118.375 C218.74173828 119.14457031 218.74173828 119.14457031 217.01171875 119.9296875 C204.62131026 124.80866927 188.09605567 126.17366816 175.4375 121.375 C172.625 118.8125 172.625 118.8125 170.4375 116.375 C169.7775 116.045 169.1175 115.715 168.4375 115.375 C165.56358827 124.84873558 162.86906032 134.35631026 160.375 143.9375 C160.12041016 144.91187012 159.86582031 145.88624023 159.60351562 146.89013672 C158.45084034 151.33478708 157.32927638 155.78087456 156.30859375 160.2578125 C156.05251343 161.35887329 156.05251343 161.35887329 155.79125977 162.48217773 C155.34613173 164.41636232 154.91843954 166.35453686 154.4921875 168.29296875 C153.31623623 171.72935968 152.38181147 173.26166145 149.4375 175.375 C143.71062176 176.56128192 138.01117587 176.20118717 132.9375 173.1875 C129.89007934 170.94935288 127.54568002 168.53727002 125.4375 165.375 C125.025 164.776875 124.6125 164.17875 124.1875 163.5625 C121.71610946 156.3542776 124.3411096 148.51913504 126.125 141.4375 C126.39538086 140.33954102 126.66576172 139.24158203 126.94433594 138.11035156 C132.54645847 115.64275347 132.54645847 115.64275347 136.4375 106.375 C135.55449219 106.89449219 134.67148437 107.41398437 133.76171875 107.94921875 C117.55578819 117.40267825 102.9192108 123.50752171 83.9375 123.6875 C82.40802734 123.73100586 82.40802734 123.73100586 80.84765625 123.77539062 C72.95985099 123.84206258 69.30984468 122.12246013 63.5625 116.625 C62.86125 115.8825 62.16 115.14 61.4375 114.375 C61.27701172 115.52162109 61.27701172 115.52162109 61.11328125 116.69140625 C60.20598173 121.63697532 58.9140858 126.4544609 57.625 131.3125 C57.35510254 132.33722412 57.08520508 133.36194824 56.80712891 134.41772461 C56.01973367 137.40414524 55.2287312 140.38959389 54.4375 143.375 C54.05572183 144.82545038 53.67417628 146.27596204 53.29296875 147.7265625 C52.65792096 150.13012983 52.01395079 152.53136472 51.359375 154.9296875 C50.70830468 157.36292487 50.0974836 159.80710296 49.515625 162.2578125 C49.04382813 164.14113281 49.04382813 164.14113281 48.5625 166.0625 C48.29695313 167.18011719 48.03140625 168.29773438 47.7578125 169.44921875 C46.04463564 173.24557813 44.07136436 174.44278025 40.4375 176.375 C34.5719199 177.24397483 30.18266141 175.73654292 25.4375 172.375 C20.55558638 167.61536938 17.30132574 164.06666591 17.125 157.125 C17.1757059 151.04029236 18.48324629 145.86918875 20.296875 140.08984375 C21.50659169 136.14997878 22.48457545 132.19471858 23.4375 128.1875 C24.99815243 121.73659604 26.98140277 115.54137177 29.4375 109.375 C28.73625 109.89449219 28.035 110.41398437 27.3125 110.94921875 C10.29387786 123.45883095 10.29387786 123.45883095 -0.5625 123.625 C-1.573125 123.65078125 -2.58375 123.6765625 -3.625 123.703125 C-7.0435845 123.32126184 -8.82765821 122.43556183 -11.5625 120.375 C-13.64896553 117.61963817 -15.01830077 114.46339845 -16.5625 111.375 C-19.80398201 111.97342745 -21.6137422 113.02053342 -24.125 115.125 C-33.70465811 122.41540158 -42.48910449 124.83549139 -54.5625 123.375 C-60.64104046 121.68768101 -65.20587643 116.51794552 -68.5625 111.375 C-76.3494501 95.91561378 -73.6449536 76.23736088 -68.5625 60.375 C-68.12124545 58.88966418 -67.68118357 57.40397364 -67.2421875 55.91796875 C-62.99009746 41.96714145 -57.06229646 29.56101033 -47.5625 18.375 C-46.840625 17.385 -46.11875 16.395 -45.375 15.375 C-34.90397437 3.09036535 -16.04785747 -7.16260305 0 0 Z " fill="#FD6352" transform="translate(237.5625,142.625)"/>
<path d="M0 0 C1.09828125 -0.00773437 2.1965625 -0.01546875 3.328125 -0.0234375 C23.28961701 0.02386461 43.14226397 6.05244338 57.8359375 19.953125 C64.75091878 27.29249142 67.39403805 35.07094487 67.25 45.1875 C67.23658569 46.25170166 67.23658569 46.25170166 67.22290039 47.33740234 C67.11195896 52.32804213 66.90077807 56.63136732 65 61.25 C64.58105469 62.28253906 64.16210938 63.31507813 63.73046875 64.37890625 C54.73001773 84.32881107 37.41854179 96.31340897 17.69921875 104.64453125 C10.74823322 107.25 10.74823322 107.25 7 107.25 C8.2333443 130.78234546 12.53509451 156.63914998 29.70703125 174.1953125 C39.41915047 182.8981655 48.6624811 184.91224578 61.38671875 184.64453125 C68.95768703 184.21320407 75.70937298 181.44375135 82 177.25 C85.0875593 176.92837924 87.14015561 176.76275485 89.875 178.3125 C91.66557322 181.39626499 91.37436648 183.7509707 91 187.25 C88.83203125 189.83984375 88.83203125 189.83984375 85.8125 192.1875 C85.27439697 192.60862061 84.73629395 193.02974121 84.18188477 193.46362305 C73.1097365 201.94411112 60.84539184 209.69078993 46.8984375 211.890625 C44.9961171 212.06613354 44.9961171 212.06613354 44 213.25 C27.70132882 214.48659072 15.16273145 210.56716665 1.875 201 C-13.89342386 185.91715979 -23.74753669 162.22754187 -25.1796875 140.52734375 C-25.18589605 138.76722072 -25.1075619 137.00684435 -25 135.25 C-25.66 135.25 -26.32 135.25 -27 135.25 C-27.24234375 136.42433594 -27.4846875 137.59867188 -27.734375 138.80859375 C-28.6187952 143.07719297 -29.53047257 147.33967452 -30.44433594 151.60205078 C-30.96941034 154.10422869 -31.4608415 156.61079336 -31.9453125 159.12109375 C-32.25436942 160.62256875 -32.56422819 162.123879 -32.875 163.625 C-32.9997168 164.31907959 -33.12443359 165.01315918 -33.25292969 165.72827148 C-34.02937058 169.33552349 -35.08035722 171.72497912 -37.7734375 174.18359375 C-42.86274727 177.4429701 -47.15182716 177.29326701 -53 176.25 C-58.74880165 173.87822664 -63.67059017 170.60600712 -67 165.25 C-76.96020166 135.36939501 -50.3035988 84.18451583 -38.9375 56.9375 C-38.51662109 55.91849609 -38.09574219 54.89949219 -37.66210938 53.84960938 C-30.15846667 35.82923334 -30.15846667 35.82923334 -23 32.25 C-19.61040864 31.98275232 -16.21144668 32.01838511 -12.8125 32 C-11.41161133 31.9690625 -11.41161133 31.9690625 -9.98242188 31.9375 C-4.18678496 31.9048715 -0.12816376 32.50202592 5 35.25 C6 36.25 6 36.25 6.20410156 39.42700195 C5.9957133 43.33029357 5.26155489 45.84673037 3.734375 49.41796875 C3.01701172 51.13016602 3.01701172 51.13016602 2.28515625 52.87695312 C1.77855469 54.05193359 1.27195312 55.22691406 0.75 56.4375 C-2.50590478 64.09870378 -5.58044179 71.71126003 -8.13769531 79.63598633 C-9.19388496 82.83774809 -10.42215214 85.90168833 -11.75 89 C-12.17796875 90.00546875 -12.6059375 91.0109375 -13.046875 92.046875 C-13.36140625 92.77390625 -13.6759375 93.5009375 -14 94.25 C3.18814883 85.75156711 16.77072256 74.56083421 24 56.25 C25.90227259 47.87066431 27.36546666 35.10978657 23 27.375 C19.38930307 22.84615442 14.33945544 21.02981848 9 19.25 C-7.99984111 17.67205681 -19.79882436 20.28233011 -33.3203125 31.01171875 C-34.20460937 31.75035156 -35.08890625 32.48898438 -36 33.25 C-36.65742187 33.79269531 -37.31484375 34.33539063 -37.9921875 34.89453125 C-49.4567153 45.3288365 -56.98582575 61.21484672 -58.34765625 76.4375 C-59.15193782 79.90506124 -60.14538915 81.15203299 -63 83.25 C-67.62350883 84.42023593 -72.13802858 84.27207718 -76.35546875 81.95703125 C-81.92996385 77.38657279 -85.2269661 72.50168645 -86.515625 65.4140625 C-87.43471249 53.00638136 -80.57253842 41.43901409 -72.7578125 32.1875 C-72.17773438 31.548125 -71.59765625 30.90875 -71 30.25 C-70.41992188 29.59 -69.83984375 28.93 -69.2421875 28.25 C-51.48099582 9.22545996 -25.58373959 -0.18016718 0 0 Z " fill="#FD6352" transform="translate(118,92.75)"/>
<path d="M0 0 C6.00229723 3.48716459 9.54078702 7.57843162 11.9296875 14.12109375 C13.32510615 22.41546218 11.77907504 29.26843277 6.9296875 36.12109375 C1.86800428 41.807973 -4.20105411 45.16498935 -11.8828125 45.62109375 C-18.53867447 45.37795724 -24.28651996 42.97390594 -28.9609375 38.18359375 C-34.86138204 30.621859 -35.77174389 24.38686416 -34.86328125 14.9765625 C-33.66880508 8.32162382 -29.52263387 3.71397647 -24.21875 -0.26953125 C-16.47037491 -4.7973883 -7.78012138 -4.00080975 0 0 Z " fill="#FD6452" transform="translate(556.0703125,90.87890625)"/>
<path d="M0 0 C5.00858813 10.01717627 -1.80916378 26.26025193 -5.0234375 36.1484375 C-6.20896899 39.18803328 -7.55733635 42.07165749 -9 45 C-9.41701172 45.85029785 -9.83402344 46.7005957 -10.26367188 47.57666016 C-11.75996422 50.6032515 -13.28159248 53.61577793 -14.8125 56.625 C-15.2979126 57.59155518 -15.7833252 58.55811035 -16.28344727 59.55395508 C-20.37303776 67.42475394 -25.29241899 76.16716975 -33 81 C-33.99 81 -34.98 81 -36 81 C-40.61163871 71.77672258 -35.03108924 57.90178254 -32.05004883 48.84155273 C-28.08330448 37.25645331 -14.99370884 0 0 0 Z " fill="#FEFAF9" transform="translate(349,163)"/>
<path d="M0 0 C0.99 0.33 1.98 0.66 3 1 C4.55518984 19.93875632 -2.62890092 37.39921719 -11 54 C-11.5576001 55.1149585 -11.5576001 55.1149585 -12.12646484 56.25244141 C-16.75696681 65.36803816 -21.96046223 74.44617992 -30 81 C-31.32 81 -32.64 81 -34 81 C-34.32467714 71.41601197 -34.12980375 63.16330377 -31 54 C-30.60198454 52.66509641 -30.2077546 51.32906086 -29.81640625 49.9921875 C-24.66038086 32.89001295 -15.67397005 10.07612361 0 0 Z " fill="#FEFBFA" transform="translate(453,163)"/>
<path d="M0 0 C2.25 0.25 2.25 0.25 4 1 C5.56025433 21.77862514 -0.01809766 41.7964893 -10 60 C-10.35352539 60.65210449 -10.70705078 61.30420898 -11.07128906 61.97607422 C-15.10171082 69.33133129 -18.89310149 76.21372141 -26 81 C-26.66 81 -27.32 81 -28 81 C-33.24198942 70.51602115 -28.055296 53.49577845 -24.69238281 43.05664062 C-23.06497316 38.22261422 -21.18987894 33.60527387 -19 29 C-18.56083252 28.05447266 -18.56083252 28.05447266 -18.11279297 27.08984375 C-14.21559068 18.73671471 -10.27179052 10.8691039 -4 4 C-3.35546875 3.24203125 -2.7109375 2.4840625 -2.046875 1.703125 C-1.37140625 1.14109375 -0.6959375 0.5790625 0 0 Z " fill="#FEFBFA" transform="translate(230,163)"/>
<path d="M0 0 C0.66 0 1.32 0 2 0 C2 1.65 2 3.3 2 5 C1.01 5.495 1.01 5.495 0 6 C-0.66 6.99 -1.32 7.98 -2 9 C-1.125 2.25 -1.125 2.25 0 0 Z " fill="#FDD6D2" transform="translate(91,228)"/>
</svg>
